<?xml version="1.0" encoding="UTF-8" standalone="no"?><!DOCTYPE svg PUBLIC "-//W3C//DTD SVG 1.1//EN" "http://www.w3.org/Graphics/SVG/1.1/DTD/svg11.dtd"><svg width="72px" height="72px" version="1.1" xmlns="http://www.w3.org/2000/svg" xmlns:xlink="http://www.w3.org/1999/xlink" xml:space="preserve" xmlns:serif="http://www.serif.com/" style="fill-rule:evenodd;clip-rule:evenodd;stroke-linecap:round;stroke-linejoin:round;stroke-miterlimit:1.5;"><g id="emoji"><g id="outline" transform="matrix(3.12,0,0,1.25688,-45.7453,-2.03518)"><ellipse cx="26.207" cy="30.189" rx="9.68" ry="23.979" style="fill:#fff;stroke:#000;stroke-width:0.84px;"/></g><g id="top" transform="matrix(1.04821e-16,1.71186,-2.24719,1.37601e-16,71.7169,-8.33941)"><path d="M25.891,2.837C16.42,2.874 8.731,8.71 8.731,15.889C8.731,23.069 16.42,28.905 25.891,28.942L25.891,2.837Z" style="fill:#d22f27;"/></g><g id="dividing-line" serif:id="dividing line" transform="matrix(1,0,0,1,0,1.17328)"><path d="M6.532,34.809L64.756,34.809" style="fill:none;stroke:#000;stroke-width:2px;"/></g><g id="centre-circle" serif:id="centre circle" transform="matrix(1.20775,0,0,1.20775,-10.1341,-1.12311)"><circle cx="38.198" cy="30.87" r="6.504" style="fill:#fff;stroke:#000;stroke-width:1.66px;"/></g><g id="button" transform="matrix(0.897143,0,0,0.897143,6.92846,16.5436)"><circle cx="32.405" cy="21.687" r="4.008" style="fill:#fff;stroke:#000;stroke-width:2.23px;"/></g></g></svg>