<?xml version="1.0" encoding="UTF-8" standalone="no"?>
<!DOCTYPE svg PUBLIC "-//W3C//DTD SVG 1.1//EN" "http://www.w3.org/Graphics/SVG/1.1/DTD/svg11.dtd">
<svg width="100%" height="100%" viewBox="0 0 72 72" version="1.1" xmlns="http://www.w3.org/2000/svg" xmlns:xlink="http://www.w3.org/1999/xlink" xml:space="preserve" xmlns:serif="http://www.serif.com/" style="fill-rule:evenodd;clip-rule:evenodd;stroke-miterlimit:10;">
    <g id="color">
        <rect x="5" y="17" width="62" height="38" style="fill:white;"/>
        <path d="M67,33L39,33L39,17L33,17L33,33L5,33L5,39L33,39L33,55L39,55L39,39L67,39L67,33Z" style="fill:rgb(210,47,39);fill-rule:nonzero;stroke:rgb(210,47,39);stroke-width:2px;"/>
        <g transform="matrix(1,0,0,1.11924,0.916031,-3.19866)">
            <g transform="matrix(1,0,0,0.938931,-3.20611,-4.67176)">
                <path d="M21,27L21,36" style="fill:none;fill-rule:nonzero;stroke:rgb(210,47,39);stroke-width:2px;stroke-linecap:round;stroke-linejoin:round;stroke-miterlimit:4;"/>
            </g>
            <g transform="matrix(6.12323e-17,-1,0.409669,2.5085e-17,4.88931,47.645)">
                <path d="M21,27L21,36" style="fill:none;fill-rule:nonzero;stroke:rgb(210,47,39);stroke-width:2px;stroke-linecap:round;stroke-linejoin:round;stroke-miterlimit:4;"/>
            </g>
        </g>
    </g>
    <g id="line">
        <rect x="5" y="17" width="62" height="38" style="fill:none;stroke:black;stroke-width:2px;stroke-linecap:round;stroke-linejoin:round;stroke-miterlimit:4;"/>
    </g>
</svg>
