<?xml version="1.0" encoding="UTF-8" standalone="no"?>
<!DOCTYPE svg PUBLIC "-//W3C//DTD SVG 1.1//EN" "http://www.w3.org/Graphics/SVG/1.1/DTD/svg11.dtd">
<svg width="100%" height="100%" viewBox="0 0 72 72" version="1.1" xmlns="http://www.w3.org/2000/svg" xmlns:xlink="http://www.w3.org/1999/xlink" xml:space="preserve" xmlns:serif="http://www.serif.com/" style="fill-rule:evenodd;clip-rule:evenodd;stroke-linecap:round;stroke-linejoin:round;">
    <g id="color">
        <g>
            <rect x="5" y="17" width="62" height="38" style="fill:#fff;"/>
        </g>
        <g>
            <rect x="5" y="17" width="62" height="5"/>
        </g>
        <g>
            <rect x="5" y="26" width="62" height="4"/>
        </g>
        <g>
            <rect x="5" y="34" width="62" height="4" style="fill:#000003;"/>
        </g>
        <g>
            <rect x="5" y="17" width="32" height="21"/>
        </g>
        <g>
            <rect x="5" y="42" width="62" height="4"/>
        </g>
        <g transform="matrix(0.99071,3.40313e-22,-3.17112e-22,1.0632,0.476641,-6.89488)">
            <rect x="5" y="42" width="62" height="4" style="fill:#61b2e4;"/>
        </g>
        <g>
            <circle cx="9" cy="22" r="1.75" style="fill:#fff;"/>
        </g>
        <g>
            <circle cx="17" cy="22" r="1.75" style="fill:#fff;"/>
        </g>
        <g>
            <circle cx="25" cy="22" r="1.75" style="fill:#fff;"/>
        </g>
        <g>
            <circle cx="33" cy="22" r="1.75" style="fill:#fff;"/>
        </g>
        <g>
            <circle cx="29" cy="26" r="1.75" style="fill:#fff;"/>
        </g>
        <g>
            <circle cx="21" cy="26" r="1.75" style="fill:#fff;"/>
        </g>
        <g>
            <circle cx="13" cy="26" r="1.75" style="fill:#fff;"/>
        </g>
        <g>
            <circle cx="9" cy="30" r="1.75" style="fill:#fff;"/>
        </g>
        <g>
            <circle cx="17" cy="30" r="1.75" style="fill:#fff;"/>
        </g>
        <g>
            <circle cx="25" cy="30" r="1.75" style="fill:#fff;"/>
        </g>
        <g>
            <circle cx="33" cy="30" r="1.75" style="fill:#fff;"/>
        </g>
        <g>
            <circle cx="29" cy="34" r="1.75" style="fill:#fff;"/>
        </g>
        <g>
            <circle cx="21" cy="34" r="1.75" style="fill:#fff;"/>
        </g>
        <g>
            <circle cx="13" cy="34" r="1.75" style="fill:#fff;"/>
        </g>
        <g>
            <rect x="5" y="50" width="62" height="5"/>
        </g>
    </g>
    <g>
        <g id="line">
            <rect x="5" y="17" width="62" height="38" style="fill:none;stroke:#000;stroke-width:2px;"/>
        </g>
    </g>
</svg>
